<svg xmlns="http://www.w3.org/2000/svg" viewBox="0 0 900 620"><defs><linearGradient id="b" x1="0" y1="0" x2="1" y2="1"><stop stop-color="#192e54"/><stop offset="1" stop-color="#4753a7"/></linearGradient></defs><rect width="900" height="620" fill="url(#b)"/><circle cx="100" cy="540" r="250" fill="#168eea" opacity=".12"/><text x="62" y="70" fill="#fff" font-family="Arial" font-size="19" font-weight="700">APP ACQUISITION · PERFORMANCE OVERVIEW</text><rect x="62" y="104" width="776" height="454" rx="20" fill="#fff"/><g font-family="Arial"><rect x="92" y="136" width="208" height="116" rx="13" fill="#eef3ff"/><text x="114" y="173" fill="#687685" font-size="12">INSTALLS</text><text x="114" y="224" fill="#394d9f" font-size="40" font-weight="700">18.2K</text><rect x="320" y="136" width="208" height="116" rx="13" fill="#f5f7f9"/><text x="342" y="173" fill="#687685" font-size="12">COST / INSTALL</text><text x="342" y="224" fill="#1d2733" font-size="40" font-weight="700">11.4</text><rect x="548" y="136" width="260" height="116" rx="13" fill="#f3faf6"/><text x="570" y="173" fill="#687685" font-size="12">ACTIVATION RATE</text><text x="570" y="224" fill="#20a85e" font-size="40" font-weight="700">+54%</text></g><g transform="translate(92 285)"><rect width="716" height="230" rx="13" fill="#f8fafb"/><path d="M32 185 100 160l67 9 68-52 66 23 70-69 67 26 69-51 66 22 91-52" fill="none" stroke="#5568cf" stroke-width="7" stroke-linecap="round" stroke-linejoin="round"/><g fill="#5568cf"><circle cx="100" cy="160" r="6"/><circle cx="235" cy="117" r="6"/><circle cx="371" cy="71" r="6"/><circle cx="507" cy="46" r="6"/><circle cx="664" cy="16" r="6"/></g></g></svg>
