<svg xmlns="http://www.w3.org/2000/svg" viewBox="0 0 900 620"><rect width="900" height="620" fill="#eef2f7"/><rect x="36" y="34" width="828" height="552" rx="20" fill="#fff" stroke="#dce3ea"/><rect x="36" y="34" width="828" height="78" rx="20" fill="#172b4d"/><text x="72" y="82" fill="#fff" font-family="Arial" font-size="19" font-weight="700">B2B SaaS · LEAD GENERATION</text><g font-family="Arial"><rect x="72" y="142" width="242" height="130" rx="14" fill="#edf3ff"/><text x="96" y="183" fill="#687685" font-size="12">DEMO REQUESTS</text><text x="96" y="243" fill="#3156a3" font-size="44" font-weight="700">412</text><rect x="329" y="142" width="242" height="130" rx="14" fill="#f5f7f9"/><text x="353" y="183" fill="#687685" font-size="12">COST / DEMO</text><text x="353" y="243" fill="#1d2733" font-size="41" font-weight="700">−27%</text><rect x="586" y="142" width="242" height="130" rx="14" fill="#f3faf6"/><text x="610" y="183" fill="#687685" font-size="12">MQL RATE</text><text x="610" y="243" fill="#20a85e" font-size="41" font-weight="700">46%</text></g><g transform="translate(72 310)" font-family="Arial"><rect width="756" height="224" rx="14" fill="#f8fafc"/><text x="24" y="40" fill="#687685" font-size="13">Funnel performance</text><path d="M54 82h648l-80 52H134L54 82Zm80 66h488l-82 49H216l-82-49Z" fill="#3156a3" opacity=".88"/><text x="378" y="116" text-anchor="middle" fill="#fff" font-size="15" font-weight="700">4,820 LANDING PAGE VISITS</text><text x="378" y="181" text-anchor="middle" fill="#fff" font-size="15" font-weight="700">412 DEMO REQUESTS</text></g></svg>
