<svg xmlns="http://www.w3.org/2000/svg" viewBox="0 0 900 620"><defs><linearGradient id="s" x1="0" y1="0" x2="0" y2="1"><stop stop-color="#bfe0f2"/><stop offset="1" stop-color="#e7f2f7"/></linearGradient></defs><rect width="900" height="620" fill="url(#s)"/><circle cx="730" cy="90" r="75" fill="#fff" opacity=".65"/><path d="M0 455c130-52 254-49 380 4 145 61 300 47 520-43v204H0V455Z" fill="#8bc7d7"/><path d="M0 503c150-48 284-38 405 7 167 62 322 52 495-30v140H0V503Z" fill="#3b9bb5"/><rect x="46" y="39" width="808" height="267" rx="20" fill="#0b2942" opacity=".94"/><text x="80" y="87" fill="#fff" font-family="Arial" font-size="19" font-weight="700">TRAVEL · BOOKING CAMPAIGN</text><g font-family="Arial"><text x="80" y="142" fill="#a9c3d6" font-size="13">CONFIRMED BOOKINGS</text><text x="80" y="209" fill="#fff" font-size="52" font-weight="700">1,260</text><text x="360" y="142" fill="#a9c3d6" font-size="13">COST / BOOKING</text><text x="360" y="209" fill="#67d69a" font-size="48" font-weight="700">−33%</text><text x="640" y="142" fill="#a9c3d6" font-size="13">ROAS</text><text x="640" y="209" fill="#fff" font-size="48" font-weight="700">4.9X</text></g><path d="m655 358 42-18 32-52 18 5-12 54 42 26-7 14-46-16-33 46-15-6 17-54-38 16Z" fill="#fff" stroke="#1261a0" stroke-width="3"/><rect x="54" y="355" width="477" height="144" rx="16" fill="#fff" opacity=".92"/><text x="82" y="398" fill="#687685" font-family="Arial" font-size="12">TOP DESTINATION</text><text x="82" y="449" fill="#0b2942" font-family="Arial" font-size="33" font-weight="700">Red Sea Escapes</text><text x="82" y="476" fill="#1261a0" font-family="Arial" font-size="13" font-weight="700">42% of confirmed bookings</text></svg>
