<svg xmlns="http://www.w3.org/2000/svg" viewBox="0 0 900 620"><rect width="900" height="620" fill="#eff3f6"/><rect x="38" y="32" width="824" height="556" rx="18" fill="#fff" stroke="#dce3e9"/><rect x="38" y="32" width="824" height="72" rx="18" fill="#fff"/><text x="72" y="77" fill="#1d2733" font-family="Arial" font-size="19" font-weight="700">GOOGLE ADS · REAL ESTATE LEADS</text><rect x="726" y="55" width="103" height="30" rx="15" fill="#eaf4fd"/><text x="777" y="75" text-anchor="middle" fill="#1261a0" font-family="Arial" font-size="12">ACTIVE</text><rect x="72" y="125" width="756" height="122" rx="14" fill="#0b2942"/><text x="100" y="165" fill="#a9c3d6" font-family="Arial" font-size="13">QUALIFIED LEADS</text><text x="100" y="220" fill="#fff" font-family="Arial" font-size="48" font-weight="700">1,840</text><text x="348" y="165" fill="#a9c3d6" font-family="Arial" font-size="13">CPL</text><text x="348" y="220" fill="#53c98a" font-family="Arial" font-size="44" font-weight="700">−42%</text><text x="570" y="165" fill="#a9c3d6" font-family="Arial" font-size="13">CONVERSION</text><text x="570" y="220" fill="#fff" font-family="Arial" font-size="44" font-weight="700">12.6%</text><g transform="translate(72 276)" font-family="Arial"><text x="0" y="18" fill="#687685" font-size="13">Lead quality by week</text><rect y="42" width="756" height="250" rx="12" fill="#f7f9fb"/><g fill="#168eea"><rect x="50" y="184" width="58" height="82" rx="6"/><rect x="143" y="157" width="58" height="109" rx="6"/><rect x="236" y="130" width="58" height="136" rx="6"/><rect x="329" y="102" width="58" height="164" rx="6"/><rect x="422" y="77" width="58" height="189" rx="6"/><rect x="515" y="50" width="58" height="216" rx="6"/><rect x="608" y="28" width="58" height="238" rx="6"/></g></g></svg>
